<svg width="29" height="29" viewBox="0 0 29 29" fill="none" xmlns="http://www.w3.org/2000/svg">
<path d="M15.9906 0C17.6218 0.0043499 18.4497 0.0130497 19.1645 0.0333492L19.4458 0.0434989C19.7706 0.0550987 20.091 0.0695983 20.4781 0.0869979C22.0209 0.159496 23.0735 0.403091 23.9971 0.761232C24.9541 1.12952 25.7602 1.62831 26.5664 2.43304C27.3037 3.15788 27.8741 4.03466 28.2381 5.00238C28.5963 5.92601 28.8399 6.97869 28.9124 8.5229C28.9298 8.90859 28.9443 9.22903 28.9559 9.55528L28.9646 9.83657C28.9863 10.55 28.995 11.3779 28.9979 13.0091L28.9994 14.0908V15.9902C29.0029 17.0478 28.9918 18.1054 28.966 19.1628L28.9573 19.444C28.9457 19.7703 28.9312 20.0907 28.9138 20.4764C28.8413 22.0206 28.5948 23.0719 28.2381 23.9969C27.8752 24.9652 27.3046 25.8422 26.5664 26.5663C25.8414 27.3033 24.9647 27.8738 23.9971 28.2381C23.0735 28.5962 22.0209 28.8398 20.4781 28.9123C20.1341 28.9285 19.79 28.943 19.4458 28.9558L19.1645 28.9645C18.4497 28.9848 17.6218 28.995 15.9906 28.9979L14.909 28.9993H13.011C11.953 29.003 10.8949 28.9919 9.83713 28.966L9.55585 28.9573C9.21165 28.9442 8.86753 28.9293 8.5235 28.9123C6.98078 28.8398 5.92813 28.5962 5.00308 28.2381C4.0355 27.8747 3.15909 27.3041 2.43526 26.5663C1.69732 25.8417 1.1263 24.9649 0.762048 23.9969C0.403916 23.0733 0.160328 22.0206 0.0878321 20.4764C0.0716782 20.1324 0.0571788 19.7882 0.0443343 19.444L0.0370849 19.1628C0.0103657 18.1055 -0.00171828 17.0479 0.000836608 15.9902V13.0091C-0.00321009 11.9515 0.00742384 10.8939 0.0327351 9.83657L0.0428845 9.55528C0.0544839 9.22903 0.0689831 8.90859 0.0863822 8.5229C0.158879 6.97869 0.402466 5.92746 0.760598 5.00238C1.12469 4.03367 1.69684 3.15661 2.43671 2.43304C3.16036 1.6957 4.03619 1.12515 5.00308 0.761232C5.92813 0.403091 6.97933 0.159496 8.5235 0.0869979C8.90918 0.0695983 9.23106 0.0550987 9.55585 0.0434989L9.83713 0.0347991C10.8944 0.00903721 11.952 -0.00208026 13.0096 0.00144986L15.9906 0ZM14.5001 7.24983C12.5774 7.24983 10.7334 8.01365 9.37383 9.37326C8.01426 10.7329 7.25047 12.5769 7.25047 14.4997C7.25047 16.4224 8.01426 18.2665 9.37383 19.6261C10.7334 20.9857 12.5774 21.7495 14.5001 21.7495C16.4228 21.7495 18.2668 20.9857 19.6264 19.6261C20.9859 18.2665 21.7497 16.4224 21.7497 14.4997C21.7497 12.5769 20.9859 10.7329 19.6264 9.37326C18.2668 8.01365 16.4228 7.24983 14.5001 7.24983ZM14.5001 10.1498C15.0713 10.1497 15.637 10.2621 16.1647 10.4806C16.6925 10.6991 17.1721 11.0194 17.5761 11.4233C17.98 11.8272 18.3005 12.3066 18.5192 12.8344C18.7379 13.3621 18.8505 13.9277 18.8506 14.4989C18.8507 15.0702 18.7383 15.6358 18.5198 16.1636C18.3013 16.6914 17.9809 17.171 17.5771 17.575C17.1732 17.979 16.6938 18.2995 16.1661 18.5182C15.6384 18.7369 15.0728 18.8495 14.5015 18.8496C13.3479 18.8496 12.2415 18.3913 11.4258 17.5755C10.61 16.7597 10.1518 15.6533 10.1518 14.4997C10.1518 13.346 10.61 12.2396 11.4258 11.4238C12.2415 10.6081 13.3479 10.1498 14.5015 10.1498M22.1137 5.07488C21.633 5.07488 21.172 5.26584 20.8321 5.60574C20.4922 5.94564 20.3012 6.40665 20.3012 6.88734C20.3012 7.36803 20.4922 7.82904 20.8321 8.16894C21.172 8.50884 21.633 8.6998 22.1137 8.6998C22.5943 8.6998 23.0553 8.50884 23.3952 8.16894C23.7351 7.82904 23.9261 7.36803 23.9261 6.88734C23.9261 6.40665 23.7351 5.94564 23.3952 5.60574C23.0553 5.26584 22.5943 5.07488 22.1137 5.07488Z" fill="#06808B"/>
</svg>
