<svg width="31" height="29" viewBox="0 0 31 29" fill="none" xmlns="http://www.w3.org/2000/svg">
<path d="M6.50577 3.22365C6.50534 4.07819 6.16221 4.89756 5.55187 5.50151C4.94153 6.10546 4.11398 6.44451 3.25126 6.44409C2.38854 6.44366 1.56133 6.10379 0.951598 5.49923C0.341869 4.89468 -0.000430952 4.07497 4.07199e-07 3.22043C0.000431767 2.36589 0.343559 1.54652 0.953899 0.942576C1.56424 0.338627 2.39179 -0.000426866 3.25451 4.03338e-07C4.11723 0.000427673 4.94444 0.340302 5.55417 0.944854C6.1639 1.54941 6.5062 2.36912 6.50577 3.22365ZM6.60336 8.83001H0.0975869V29H6.60336V8.83001ZM16.8825 8.83001H10.4092V29H16.8174V18.4156C16.8174 12.5193 24.5756 11.9715 24.5756 18.4156V29H31V16.2246C31 6.2846 19.5173 6.65513 16.8174 11.5365L16.8825 8.83001Z" fill="white"/>
</svg>
