<svg width="23" height="29" viewBox="0 0 23 29" fill="none" xmlns="http://www.w3.org/2000/svg">
<path d="M11.5 16.5714C12.5339 16.5714 13.5445 16.2677 14.4041 15.6987C15.2638 15.1297 15.9337 14.3209 16.3294 13.3746C16.725 12.4283 16.8285 11.3871 16.6268 10.3826C16.4251 9.37802 15.9273 8.45529 15.1963 7.73105C14.4652 7.00682 13.5338 6.51361 12.5198 6.31379C11.5058 6.11397 10.4548 6.21653 9.49963 6.60848C8.54447 7.00043 7.72808 7.66419 7.1537 8.5158C6.57932 9.36741 6.27275 10.3686 6.27275 11.3929C6.27441 12.7658 6.82567 14.082 7.80561 15.0528C8.78556 16.0237 10.1142 16.5698 11.5 16.5714ZM11.5 8.28571C12.1203 8.28571 12.7267 8.46795 13.2425 8.80936C13.7583 9.15078 14.1603 9.63605 14.3976 10.2038C14.635 10.7716 14.6971 11.3963 14.5761 11.999C14.4551 12.6018 14.1564 13.1554 13.7178 13.5899C13.2791 14.0245 12.7203 14.3204 12.1119 14.4403C11.5035 14.5602 10.8729 14.4987 10.2998 14.2635C9.72669 14.0283 9.23686 13.6301 8.89223 13.1191C8.5476 12.6081 8.36366 12.0074 8.36366 11.3929C8.36449 10.569 8.69519 9.77921 9.28319 9.19668C9.87119 8.61416 10.6685 8.28654 11.5 8.28571Z" fill="#0A838A"/>
<path d="M11.5 29L20.3194 18.6957C20.442 18.541 20.5633 18.3852 20.6833 18.2286C22.1898 16.2626 23.0036 13.8612 23 11.3929C23 8.37128 21.7884 5.47347 19.6317 3.33689C17.4751 1.20032 14.55 0 11.5 0C8.45001 0 5.52495 1.20032 3.36828 3.33689C1.21161 5.47347 1.22406e-05 8.37128 1.22406e-05 11.3929C-0.00363946 13.8601 0.809852 16.2603 2.31569 18.2255L2.31674 18.2286C2.31674 18.2286 2.63037 18.6366 2.67742 18.6915L11.5 29ZM19.0137 16.9805C19.0137 16.9805 18.7701 17.2995 18.7147 17.3679L11.5 25.7976L4.27592 17.3565C4.22992 17.2995 3.98424 16.9774 3.98424 16.9774C2.75358 15.3712 2.0885 13.4094 2.09092 11.3929C2.09092 8.92066 3.08223 6.54972 4.84678 4.80161C6.61132 3.0535 9.00456 2.07143 11.5 2.07143C13.9954 2.07143 16.3887 3.0535 18.1532 4.80161C19.9178 6.54972 20.9091 8.92066 20.9091 11.3929C20.9113 13.4107 20.2455 15.3735 19.0137 16.9805Z" fill="#0A838A"/>
</svg>
