<svg width="23" height="28" viewBox="0 0 23 28" fill="none" xmlns="http://www.w3.org/2000/svg">
<path d="M2.27801 8.12023C1.85451 5.46294 3.82122 3.07603 6.82562 2.20153C7.35878 2.04729 7.93357 2.09198 8.43342 2.32655C8.93328 2.56111 9.32079 2.968 9.51738 3.46469L10.4819 5.91498C10.6372 6.30916 10.6652 6.73856 10.5625 7.14805C10.4598 7.55755 10.231 7.92845 9.9054 8.21317L7.03626 10.7163C6.89465 10.8398 6.78915 10.9962 6.73007 11.1702C6.67099 11.3443 6.66036 11.5299 6.69923 11.7091L6.72584 11.8189L6.79458 12.0935C7.15228 13.4274 7.69591 14.7098 8.41096 15.9062C9.19171 17.1766 10.1594 18.3339 11.2845 19.3429L11.3732 19.419C11.5165 19.5401 11.6902 19.6238 11.8775 19.6619C12.0648 19.7001 12.2593 19.6913 12.442 19.6366L16.1514 18.5234C16.573 18.3973 17.0245 18.394 17.448 18.5141C17.8715 18.6342 18.2477 18.872 18.5283 19.1972L20.2844 21.2271C21.0161 22.0721 20.9274 23.3141 20.0871 24.0597C17.7878 26.1023 14.626 26.5206 12.4264 24.8371C9.72916 22.7663 7.45611 20.2392 5.72142 17.3827C3.96976 14.53 2.80286 11.3872 2.27801 8.12023ZM9.02293 11.8485L11.3998 9.76995C12.0513 9.20076 12.5094 8.45905 12.7153 7.64005C12.9211 6.82105 12.8653 5.96213 12.555 5.17356L11.5927 2.72327C11.198 1.72367 10.4186 0.904701 9.4129 0.432728C8.40722 -0.0392461 7.25068 -0.128834 6.17818 0.182161C2.44652 1.27 -0.549008 4.45748 0.0851298 8.43919C0.528583 11.219 1.55074 14.755 3.8057 18.4473C5.67732 21.5273 8.12925 24.252 11.0384 26.4847C14.3377 29.0089 18.7412 28.1471 21.6015 25.6081C22.4199 24.8821 22.9167 23.886 22.9904 22.823C23.0642 21.76 22.7094 20.7102 21.9984 19.8879L20.2423 17.8559C19.6805 17.2063 18.9279 16.7314 18.0809 16.492C17.2339 16.2527 16.3312 16.2598 15.4885 16.5124L12.4087 17.4355C11.6135 16.6545 10.9169 15.7875 10.3333 14.8522C9.77018 13.9063 9.33084 12.8983 9.02514 11.8506" fill="#0A838A"/>
</svg>
