<svg width="29" height="29" viewBox="0 0 29 29" fill="none" xmlns="http://www.w3.org/2000/svg">
<path d="M26.9909 2.67271C27.1303 2.5134 27.2368 2.32822 27.3046 2.12772C27.3723 1.92723 27.3999 1.71535 27.3858 1.50419C27.3717 1.29303 27.3161 1.08673 27.2222 0.897052C27.1283 0.707376 26.998 0.538047 26.8387 0.398732C26.6794 0.259417 26.4942 0.152844 26.2937 0.0850977C26.0932 0.0173517 25.8813 -0.0102404 25.6701 0.00389671C25.4589 0.0180338 25.2526 0.0736234 25.063 0.167491C24.8733 0.261359 24.7039 0.391667 24.5646 0.550975L16.3318 9.95944L9.34444 0.644415C9.19437 0.444331 8.99978 0.281932 8.77607 0.170082C8.55235 0.058231 8.30567 0 8.05556 0H1.61111C1.31191 0 1.01862 0.0833143 0.764101 0.240607C0.509584 0.3979 0.303898 0.622957 0.17009 0.89056C0.0362826 1.15816 -0.0203593 1.45774 0.00651077 1.75572C0.0333808 2.0537 0.142701 2.33831 0.322223 2.57766L10.6929 16.4036L2.00906 26.3276C1.86973 26.4869 1.76316 26.6721 1.69541 26.8726C1.62766 27.0731 1.60007 27.2849 1.6142 27.4961C1.62834 27.7073 1.68393 27.9136 1.7778 28.1032C1.87168 28.2929 2.00199 28.4622 2.16131 28.6016C2.32062 28.7409 2.50582 28.8475 2.70632 28.9152C2.90683 28.9829 3.11871 29.0105 3.32988 28.9964C3.54105 28.9823 3.74736 28.9267 3.93705 28.8328C4.12673 28.7389 4.29607 28.6086 4.43539 28.4493L12.6682 19.0392L19.6556 28.3543C19.8056 28.5544 20.0002 28.7168 20.2239 28.8286C20.4476 28.9405 20.6943 28.9987 20.9444 28.9987H27.3889C27.6881 28.9987 27.9814 28.9154 28.2359 28.7581C28.4904 28.6008 28.6961 28.3757 28.8299 28.1081C28.9637 27.8405 29.0204 27.5409 28.9935 27.243C28.9666 26.945 28.8573 26.6604 28.6778 26.421L18.3071 12.5951L26.9909 2.67271Z" fill="white"/>
</svg>
